<svg width="20" height="20" viewBox="0 0 20 20" fill="none" xmlns="http://www.w3.org/2000/svg">
<g id="Custom Icons">
<path id="Vector" d="M4.10156 5H12.7734C14.0031 5 15 5.99687 15 7.22656V15.8984C15 17.1281 14.0031 18.125 12.7734 18.125H4.10156C2.87187 18.125 1.875 17.1281 1.875 15.8984V7.22656C1.875 5.99687 2.87187 5 4.10156 5Z" stroke="#143A53" stroke-width="1.5" stroke-linejoin="round"/>
<path id="Vector_2" d="M5.01953 5L5 4.0625C5.00165 3.48285 5.23265 2.9274 5.64253 2.51753C6.05241 2.10765 6.60785 1.87665 7.1875 1.875H15.625C16.2874 1.87696 16.9222 2.14098 17.3906 2.6094C17.859 3.07781 18.123 3.71256 18.125 4.375V12.8125C18.1234 13.3922 17.8924 13.9476 17.4825 14.3575C17.0726 14.7674 16.5172 14.9984 15.9375 15H15" stroke="#143A53" stroke-width="1.5" stroke-linecap="round" stroke-linejoin="round"/>
</g>
</svg>
