<svg width="20" height="20" viewBox="0 0 20 20" fill="none" xmlns="http://www.w3.org/2000/svg">
<g id="Frame">
<g id="Group">
<g id="Group_2">
<g id="Group_3">
<path id="Vector" d="M7.24935 6.41667L9.16602 4.5V12.5C9.16602 13 9.49935 13.3333 9.99935 13.3333C10.4993 13.3333 10.8327 13 10.8327 12.5V4.5L12.7493 6.41667C13.0827 6.75 13.5827 6.75 13.916 6.41667C14.2493 6.08333 14.2493 5.58333 13.916 5.25L10.5827 1.91667C10.4993 1.83333 10.416 1.75 10.3327 1.75C10.166 1.66667 9.91602 1.66667 9.66602 1.75C9.58268 1.75 9.49935 1.83333 9.41602 1.91667L6.08268 5.25C5.74935 5.58333 5.74935 6.08333 6.08268 6.41667C6.41602 6.75 6.91602 6.75 7.24935 6.41667ZM17.4993 11.6667C16.9993 11.6667 16.666 12 16.666 12.5V15.8333C16.666 16.3333 16.3327 16.6667 15.8327 16.6667H4.16602C3.66602 16.6667 3.33268 16.3333 3.33268 15.8333V12.5C3.33268 12 2.99935 11.6667 2.49935 11.6667C1.99935 11.6667 1.66602 12 1.66602 12.5V15.8333C1.66602 17.25 2.74935 18.3333 4.16602 18.3333H15.8327C17.2493 18.3333 18.3327 17.25 18.3327 15.8333V12.5C18.3327 12 17.9993 11.6667 17.4993 11.6667Z" fill="white"/>
</g>
</g>
</g>
</g>
</svg>
