<svg width="162" height="141" viewBox="0 0 162 141" fill="none" xmlns="http://www.w3.org/2000/svg">
<g id="Group" opacity="0.2">
<path id="Vector" d="M66.545 126.268C68.3739 105.791 81.1767 88.7263 97.6375 76.7812C88.4926 80.1941 77.5188 83.607 66.545 83.607C55.5711 83.607 46.4261 81.9005 37.2812 78.4877C53.742 88.7263 64.716 105.791 66.545 126.268Z" fill="#FDF4E7"/>
<path id="Vector_2" d="M125.072 156.999C145.19 156.999 161.651 141.642 161.651 122.871C161.651 104.1 145.19 88.7422 125.072 88.7422C104.953 88.7422 88.4922 104.1 88.4922 122.871C88.4922 141.642 104.953 156.999 125.072 156.999Z" fill="#FDF4E7"/>
<path id="Vector_3" d="M9.87247 156.999C29.9912 156.999 46.452 141.642 46.452 122.871C46.452 104.1 29.9912 88.7422 9.87247 88.7422C-10.2463 88.7422 -26.707 104.1 -26.707 122.871C-26.707 141.642 -10.2463 156.999 9.87247 156.999Z" fill="#FDF4E7"/>
<path id="Vector_4" d="M68.3805 68.2572C88.5828 68.2572 104.96 52.9773 104.96 34.1286C104.96 15.2799 88.5828 0 68.3805 0C48.1782 0 31.801 15.2799 31.801 34.1286C31.801 52.9773 48.1782 68.2572 68.3805 68.2572Z" fill="#FDF4E7"/>
</g>
</svg>
