<svg width="55" height="48" viewBox="0 0 55 48" fill="none" xmlns="http://www.w3.org/2000/svg">
<g id="Group">
<g id="Group 1000001867">
<path id="Vector" d="M27.6665 13.125C26.4118 13.125 25.1853 12.7529 24.1421 12.0559C23.0989 11.3588 22.2858 10.3681 21.8056 9.2089C21.3255 8.04973 21.1999 6.77422 21.4447 5.54365C21.6894 4.31308 22.2936 3.18273 23.1808 2.29554C24.068 1.40836 25.1983 0.804171 26.4289 0.559396C27.6595 0.314621 28.935 0.440249 30.0942 0.920392C31.2533 1.40054 32.2441 2.21363 32.9411 3.25685C33.6382 4.30008 34.0103 5.52658 34.0103 6.78125C34.0083 8.46313 33.3394 10.0756 32.1501 11.2648C30.9608 12.4541 29.3484 13.1231 27.6665 13.125ZM27.6665 2.25C26.7703 2.25 25.8942 2.51576 25.1491 3.01366C24.4039 3.51156 23.8231 4.21924 23.4802 5.04722C23.1372 5.8752 23.0475 6.78628 23.2223 7.66526C23.3972 8.54423 23.8287 9.35162 24.4624 9.98533C25.0961 10.619 25.9035 11.0506 26.7825 11.2254C27.6615 11.4003 28.5726 11.3105 29.4005 10.9676C30.2285 10.6246 30.9362 10.0438 31.4341 9.29868C31.932 8.55352 32.1978 7.67745 32.1978 6.78125C32.1963 5.57993 31.7185 4.42823 30.869 3.57876C30.0195 2.7293 28.8678 2.25144 27.6665 2.25Z" fill="#F9AB3E"/>
<path id="Vector_2" d="M34.9166 23.0937H33.1041V18.5625C33.1053 18.3246 33.2 18.0968 33.3678 17.9281L45.4708 5.7454C45.6758 5.53895 45.791 5.25975 45.791 4.96874C45.791 4.67773 45.6758 4.39854 45.4708 4.19209C45.2779 3.99969 45.0198 3.88669 44.7476 3.87544C44.4754 3.8642 44.2089 3.95553 44.0008 4.13137L37.7966 9.40302C34.9682 11.8058 31.3778 13.125 27.6666 13.125C23.9553 13.125 20.3649 11.8058 17.5365 9.40302L11.3323 4.13137C11.1167 3.94659 10.8377 3.85303 10.5543 3.87055C10.2709 3.88807 10.0054 4.01527 9.81425 4.2252C9.62307 4.43513 9.52116 4.71126 9.53015 4.99506C9.53913 5.27885 9.6583 5.54799 9.86238 5.7454L21.9653 17.9281C22.1331 18.0968 22.2278 18.3246 22.2291 18.5625V23.0937H20.4166V18.9368L8.57732 7.02412C8.04701 6.49432 7.74199 5.78007 7.726 5.03064C7.71002 4.28121 7.9843 3.5546 8.49153 3.00267C8.99876 2.45074 9.69968 2.11622 10.4478 2.069C11.1959 2.02179 11.9333 2.26555 12.5059 2.74934L18.7101 8.0219C21.2108 10.1463 24.3853 11.3126 27.6666 11.3126C30.9478 11.3126 34.1223 10.1463 36.623 8.0219L42.8272 2.74934C43.3998 2.26555 44.1372 2.02179 44.8853 2.069C45.6334 2.11622 46.3344 2.45074 46.8416 3.00267C47.3488 3.5546 47.6231 4.28121 47.6071 5.03064C47.5911 5.78007 47.2861 6.49432 46.7558 7.02412L34.9166 18.9368V23.0937Z" fill="#F9AB3E"/>
</g>
<path id="Vector_3" d="M27.6665 36.6875C26.4118 36.6875 25.1853 36.3154 24.1421 35.6184C23.0989 34.9213 22.2858 33.9306 21.8056 32.7714C21.3255 31.6122 21.1999 30.3367 21.4447 29.1062C21.6894 27.8756 22.2936 26.7452 23.1808 25.858C24.068 24.9709 25.1983 24.3667 26.4289 24.1219C27.6595 23.8771 28.935 24.0027 30.0942 24.4829C31.2533 24.963 32.2441 25.7761 32.9411 26.8194C33.6382 27.8626 34.0103 29.0891 34.0103 30.3438C34.0083 32.0256 33.3394 33.6381 32.1501 34.8273C30.9608 36.0166 29.3484 36.6856 27.6665 36.6875ZM27.6665 25.8125C26.7703 25.8125 25.8942 26.0783 25.1491 26.5762C24.4039 27.0741 23.8231 27.7817 23.4802 28.6097C23.1372 29.4377 23.0475 30.3488 23.2223 31.2278C23.3972 32.1067 23.8287 32.9141 24.4624 33.5478C25.0961 34.1815 25.9035 34.6131 26.7825 34.7879C27.6615 34.9628 28.5726 34.873 29.4005 34.5301C30.2285 34.1871 30.9362 33.6063 31.4341 32.8612C31.932 32.116 32.1978 31.24 32.1978 30.3438C32.1963 29.1424 31.7185 27.9907 30.869 27.1413C30.0195 26.2918 28.8678 25.8139 27.6665 25.8125ZM44.8853 44.8438C43.0057 44.8656 41.1283 44.7118 39.2774 44.3843L39.6181 42.6044C41.3568 42.9095 43.1201 43.0524 44.8853 43.0313C50.0835 43.0313 52.3165 42.0706 53.0415 41.6538V38.5C53.0401 37.2987 52.5622 36.147 51.7127 35.2975C50.8633 34.4481 49.7116 33.9702 48.5103 33.9688H41.2603C40.5124 33.9682 39.776 34.153 39.117 34.5066C38.458 34.8602 37.8969 35.3716 37.4839 35.9951L35.9741 34.9919C36.5523 34.1192 37.3377 33.4034 38.2602 32.9086C39.1827 32.4137 40.2134 32.1553 41.2603 32.1563H48.5103C50.1921 32.1582 51.8046 32.8271 52.9938 34.0164C54.1831 35.2057 54.8521 36.8181 54.854 38.5V42.125C54.854 42.3653 54.7584 42.5958 54.5885 42.7657C54.3764 42.9787 52.2966 44.8438 44.8853 44.8438Z" fill="#143A53"/>
<path id="Vector_4" d="M44.8853 33.9688C43.6306 33.9688 42.4041 33.5967 41.3609 32.8996C40.3176 32.2026 39.5045 31.2118 39.0244 30.0527C38.5443 28.8935 38.4186 27.618 38.6634 26.3874C38.9082 25.1568 39.5124 24.0265 40.3995 23.1393C41.2867 22.2521 42.4171 21.6479 43.6477 21.4031C44.8782 21.1584 46.1537 21.284 47.3129 21.7641C48.4721 22.2443 49.4628 23.0574 50.1599 24.1006C50.8569 25.1438 51.229 26.3703 51.229 27.625C51.2271 29.3069 50.5581 30.9193 49.3688 32.1086C48.1796 33.2979 46.5671 33.9668 44.8853 33.9688ZM44.8853 23.0938C43.9891 23.0938 43.113 23.3595 42.3678 23.8574C41.6227 24.3553 41.0419 25.063 40.6989 25.891C40.356 26.7189 40.2662 27.63 40.4411 28.509C40.6159 29.388 41.0475 30.1954 41.6812 30.8291C42.3149 31.4628 43.1223 31.8943 44.0013 32.0692C44.8802 32.244 45.7913 32.1543 46.6193 31.8113C47.4473 31.4684 48.1549 30.8876 48.6529 30.1424C49.1508 29.3973 49.4165 28.5212 49.4165 27.625C49.4151 26.4237 48.9372 25.272 48.0877 24.4225C47.2383 23.5731 46.0866 23.0952 44.8853 23.0938ZM10.4478 44.8438C3.03644 44.8438 0.956598 42.9787 0.744535 42.7657C0.574569 42.5958 0.479055 42.3653 0.479004 42.125V38.5C0.480923 36.8181 1.1499 35.2057 2.33916 34.0164C3.52843 32.8271 5.14088 32.1582 6.82275 32.1563H14.0728C15.1196 32.1553 16.1503 32.4137 17.0728 32.9086C17.9953 33.4034 18.7808 34.1192 19.3589 34.9919L17.8491 35.9951C17.4361 35.3716 16.875 34.8602 16.216 34.5066C15.557 34.153 14.8206 33.9682 14.0728 33.9688H6.82275C5.62143 33.9702 4.46973 34.4481 3.62027 35.2975C2.7708 36.147 2.29294 37.2987 2.2915 38.5V41.6583C2.99566 42.0625 5.22594 43.0313 10.4478 43.0313C12.2129 43.0524 13.9762 42.9095 15.7149 42.6044L16.0556 44.3843C14.2047 44.7117 12.3273 44.8656 10.4478 44.8438Z" fill="#143A53"/>
<path id="Vector_5" d="M10.4478 33.9688C9.19308 33.9688 7.96658 33.5967 6.92336 32.8996C5.88013 32.2026 5.06704 31.2118 4.5869 30.0527C4.10675 28.8935 3.98113 27.618 4.2259 26.3874C4.47068 25.1568 5.07486 24.0265 5.96205 23.1393C6.84924 22.2521 7.97959 21.6479 9.21015 21.4031C10.4407 21.1584 11.7162 21.284 12.8754 21.7641C14.0346 22.2443 15.0253 23.0574 15.7224 24.1006C16.4195 25.1438 16.7915 26.3703 16.7915 27.625C16.7896 29.3069 16.1206 30.9193 14.9313 32.1086C13.7421 33.2979 12.1296 33.9668 10.4478 33.9688ZM10.4478 23.0938C9.55156 23.0938 8.67549 23.3595 7.93033 23.8574C7.18517 24.3553 6.60439 25.063 6.26143 25.891C5.91847 26.7189 5.82873 27.63 6.00357 28.509C6.17841 29.388 6.60997 30.1954 7.24368 30.8291C7.87739 31.4628 8.68478 31.8943 9.56375 32.0692C10.4427 32.244 11.3538 32.1543 12.1818 31.8113C13.0098 31.4684 13.7175 30.8876 14.2154 30.1424C14.7133 29.3973 14.979 28.5212 14.979 27.625C14.9776 26.4237 14.4997 25.272 13.6502 24.4225C12.8008 23.5731 11.6491 23.0952 10.4478 23.0938Z" fill="#143A53"/>
<path id="Subtract" fill-rule="evenodd" clip-rule="evenodd" d="M27.6665 47.5625C20.2552 47.5625 18.1753 45.6974 17.9633 45.4845C17.7933 45.3146 17.6978 45.0841 17.6978 44.8438V41.2188C17.6997 39.5369 18.3686 37.9244 19.5579 36.7352C20.7472 35.5459 22.3596 34.8769 24.0415 34.875H31.2915C32.9734 34.8769 34.5858 35.5459 35.7751 36.7352C36.9644 37.9244 37.6333 39.5369 37.6353 41.2188V44.8438C37.6352 45.0841 37.5397 45.3146 37.3697 45.4845C37.1577 45.6974 35.0778 47.5625 27.6665 47.5625ZM19.5103 44.377C20.2144 44.7812 22.4447 45.75 27.6665 45.75C32.8648 45.75 35.0978 44.7894 35.8228 44.3725V41.2188C35.8213 40.0174 35.3435 38.8657 34.494 38.0163C33.6445 37.1668 32.4928 36.6889 31.2915 36.6875H24.0415C22.8402 36.6889 21.6885 37.1668 20.839 38.0163C19.9896 38.8657 19.5117 40.0174 19.5103 41.2188V44.377Z" fill="#143A53"/>
</g>
</svg>
