<svg width="55" height="56" viewBox="0 0 55 56" fill="none" xmlns="http://www.w3.org/2000/svg">
<g id="Group">
<path id="Vector" d="M48.5105 38.875C48.3698 38.8753 48.2309 38.8427 48.105 38.7797C47.9791 38.7168 47.8697 38.6253 47.7855 38.5125L42.6199 31.625H37.6355C37.3951 31.625 37.1646 31.5295 36.9947 31.3596C36.8247 31.1896 36.7292 30.9591 36.7292 30.7188C36.7292 30.4784 36.8247 30.2479 36.9947 30.0779C37.1646 29.908 37.3951 29.8125 37.6355 29.8125H43.073C43.2137 29.8125 43.3524 29.8453 43.4783 29.9082C43.6041 29.9711 43.7136 30.0624 43.798 30.175L47.6042 35.25V30.7188C47.6042 30.4784 47.6997 30.2479 47.8697 30.0779C48.0396 29.908 48.2701 29.8125 48.5105 29.8125H52.1355C52.3759 29.8125 52.6064 29.717 52.7763 29.5471C52.9463 29.3771 53.0417 29.1466 53.0417 28.9062V3.53125C53.0417 3.2909 52.9463 3.06039 52.7763 2.89043C52.6064 2.72048 52.3759 2.625 52.1355 2.625H23.1355C22.8951 2.625 22.6646 2.72048 22.4947 2.89043C22.3247 3.06039 22.2292 3.2909 22.2292 3.53125V21.6562C22.2292 21.8966 22.1338 22.1271 21.9638 22.2971C21.7939 22.467 21.5634 22.5625 21.323 22.5625C21.0826 22.5625 20.8521 22.467 20.6822 22.2971C20.5122 22.1271 20.4167 21.8966 20.4167 21.6562V3.53125C20.4167 2.03231 21.6366 0.8125 23.1355 0.8125H52.1355C53.6344 0.8125 54.8542 2.03231 54.8542 3.53125V28.9062C54.8542 30.4052 53.6344 31.625 52.1355 31.625H49.4167V37.9688C49.4158 38.2088 49.32 38.4388 49.1503 38.6085C48.9805 38.7783 48.7506 38.874 48.5105 38.875Z" fill="#143A53"/>
<path id="Vector_2" d="M32.198 55.1874H3.198C1.69906 55.1874 0.479248 53.9676 0.479248 52.4687V27.0937C0.479248 25.5948 1.69906 24.3749 3.198 24.3749H5.91675V18.0312C5.91675 17.6415 6.16687 17.2953 6.53662 17.1703C6.71728 17.1117 6.91168 17.1107 7.0929 17.1676C7.27411 17.2244 7.43316 17.3362 7.548 17.4874L12.7136 24.3749H17.698C17.9384 24.3749 18.1689 24.4704 18.3388 24.6404C18.5088 24.8103 18.6042 25.0408 18.6042 25.2812C18.6042 25.5215 18.5088 25.7521 18.3388 25.922C18.1689 26.092 17.9384 26.1874 17.698 26.1874H12.2605C12.1198 26.1874 11.981 26.1547 11.8552 26.0918C11.7294 26.0288 11.6199 25.9375 11.5355 25.8249L7.72925 20.7499V25.2812C7.72925 25.5215 7.63377 25.7521 7.46381 25.922C7.29386 26.092 7.06335 26.1874 6.823 26.1874H3.198C2.95765 26.1874 2.72714 26.2829 2.55718 26.4529C2.38723 26.6228 2.29175 26.8533 2.29175 27.0937V52.4687C2.29175 52.709 2.38723 52.9396 2.55718 53.1095C2.72714 53.2795 2.95765 53.3749 3.198 53.3749H32.198C32.4384 53.3749 32.6689 53.2795 32.8388 53.1095C33.0088 52.9396 33.1042 52.709 33.1042 52.4687V27.0937C33.1042 26.8533 33.0088 26.6228 32.8388 26.4529C32.6689 26.2829 32.4384 26.1874 32.198 26.1874H25.0241C24.7838 26.1874 24.5533 26.092 24.3833 25.922C24.2134 25.7521 24.1179 25.5215 24.1179 25.2812C24.1179 25.0408 24.2134 24.8103 24.3833 24.6404C24.5533 24.4704 24.7838 24.3749 25.0241 24.3749H32.198C33.6969 24.3749 34.9167 25.5948 34.9167 27.0937V52.4687C34.9167 53.9676 33.6969 55.1874 32.198 55.1874Z" fill="#143A53"/>
<path id="Vector_3" d="M30.3855 31.625H23.1355C21.6366 31.625 20.4167 30.4052 20.4167 28.9062V21.6562C20.4167 21.4159 20.5122 21.1854 20.6822 21.0154C20.8521 20.8455 21.0826 20.75 21.323 20.75C21.5634 20.75 21.7939 20.8455 21.9638 21.0154C22.1338 21.1854 22.2292 21.4159 22.2292 21.6562V28.9062C22.2292 29.1466 22.3247 29.3771 22.4947 29.5471C22.6646 29.717 22.8951 29.8125 23.1355 29.8125H30.3855C30.6259 29.8125 30.8564 29.908 31.0263 30.0779C31.1963 30.2479 31.2917 30.4784 31.2917 30.7188C31.2917 30.9591 31.1963 31.1896 31.0263 31.3596C30.8564 31.5295 30.6259 31.625 30.3855 31.625Z" fill="#143A53"/>
<g id="Group 1000001868">
<g id="Vector_4">
<path d="M35.4253 22.4713C35.5492 22.5315 35.6853 22.5627 35.8231 22.5625C36.0252 22.563 36.2216 22.4955 36.3807 22.3709C36.5398 22.2463 36.6524 22.0718 36.7003 21.8755L40.3253 7.37553C40.3773 7.14459 40.3369 6.90248 40.2126 6.70098C40.0884 6.49948 39.8903 6.35458 39.6606 6.29728C39.4309 6.23998 39.1879 6.27482 38.9836 6.39435C38.7793 6.51388 38.6298 6.70862 38.5672 6.93691L34.9422 21.4369C34.9089 21.5706 34.9065 21.7102 34.9352 21.845C34.9639 21.9798 35.0229 22.1062 35.1079 22.2148C35.1928 22.3233 35.3014 22.411 35.4253 22.4713Z" fill="#F9AB3E"/>
<path d="M46.1408 22.3705C46.2999 22.4951 46.4961 22.5626 46.6981 22.5625C46.8359 22.5627 46.972 22.5315 47.0959 22.4713C47.2198 22.411 47.3284 22.3233 47.4133 22.2148C47.4983 22.1062 47.5573 21.9798 47.586 21.845C47.6147 21.7102 47.6123 21.5706 47.579 21.4369L43.954 6.93691C43.9275 6.81908 43.8777 6.70774 43.8075 6.60943C43.7373 6.51112 43.6482 6.42783 43.5454 6.36444C43.4426 6.30106 43.3282 6.25886 43.2088 6.24034C43.0895 6.22181 42.9676 6.22733 42.8505 6.25657C42.7333 6.2858 42.6231 6.33817 42.5265 6.41058C42.4298 6.483 42.3486 6.574 42.2876 6.67825C42.2266 6.7825 42.1871 6.89788 42.1713 7.01763C42.1556 7.13737 42.1639 7.25906 42.1958 7.37553L45.8208 21.8755C45.8691 22.0717 45.9818 22.246 46.1408 22.3705Z" fill="#F9AB3E"/>
</g>
<g id="Vector_5">
<path d="M36.7295 18.9376H45.792C46.0323 18.9376 46.2629 18.8421 46.4328 18.6722C46.6028 18.5022 46.6982 18.2717 46.6982 18.0314C46.6982 17.791 46.6028 17.5605 46.4328 17.3906C46.2629 17.2206 46.0323 17.1251 45.792 17.1251H36.7295C36.4891 17.1251 36.2586 17.2206 36.0887 17.3906C35.9187 17.5605 35.8232 17.791 35.8232 18.0314C35.8232 18.2717 35.9187 18.5022 36.0887 18.6722C36.2586 18.8421 36.4891 18.9376 36.7295 18.9376Z" fill="#F9AB3E"/>
<path d="M39.4482 8.06262H43.0732C43.3136 8.06262 43.5441 7.96714 43.7141 7.79719C43.884 7.62723 43.9795 7.39672 43.9795 7.15637C43.9795 6.91602 43.884 6.68551 43.7141 6.51556C43.5441 6.3456 43.3136 6.25012 43.0732 6.25012H39.4482C39.2079 6.25012 38.9774 6.3456 38.8074 6.51556C38.6375 6.68551 38.542 6.91602 38.542 7.15637C38.542 7.39672 38.6375 7.62723 38.8074 7.79719C38.9774 7.96714 39.2079 8.06262 39.4482 8.06262Z" fill="#F9AB3E"/>
</g>
</g>
<g id="Group 1000001869">
<path id="Vector_6" d="M6.82293 49.75C6.59819 49.7502 6.38139 49.6669 6.2146 49.5163C6.04781 49.3656 5.94295 49.1584 5.92036 48.9348C5.89778 48.7112 5.95908 48.4872 6.09237 48.3062C6.22567 48.1253 6.42144 48.0003 6.64168 47.9556C11.5082 46.9569 17.3246 43.2558 17.6997 36.1091C17.7251 35.6107 18.1202 35.2029 18.6531 35.2518C18.8929 35.2644 19.1179 35.3718 19.2787 35.5502C19.4394 35.7286 19.5228 35.9635 19.5104 36.2034C19.0809 44.3832 12.5051 48.6027 7.006 49.7319C6.94573 49.744 6.88441 49.7501 6.82293 49.75Z" fill="#F9AB3E"/>
<path id="Vector_7" d="M21.3229 47.9375C21.1029 47.9377 20.8903 47.8578 20.7248 47.7128C17.7958 45.139 10.225 42.4747 10.1489 42.4493C10.0288 42.408 9.91887 42.3418 9.82615 42.2551C9.73342 42.1684 9.66004 42.0631 9.61077 41.9461C9.56151 41.8291 9.53748 41.703 9.54025 41.5761C9.54303 41.4492 9.57254 41.3243 9.62687 41.2096C10.5929 39.1542 13.1087 33.2636 13.1667 30.6971C13.1752 30.4579 13.2768 30.2316 13.4498 30.0664C13.6229 29.9011 13.8536 29.81 14.0929 29.8126C14.212 29.8151 14.3295 29.8412 14.4386 29.8893C14.5477 29.9373 14.6462 30.0065 14.7286 30.0927C14.8109 30.1789 14.8754 30.2805 14.9184 30.3916C14.9614 30.5028 14.9821 30.6214 14.9792 30.7405C14.9139 33.5427 12.6356 38.9349 11.6786 41.0791C13.8754 41.9019 19.3473 44.0914 21.9211 46.3498C22.0597 46.4713 22.158 46.6323 22.2028 46.8111C22.2476 46.99 22.2368 47.1782 22.1718 47.3508C22.1068 47.5233 21.9907 47.6719 21.839 47.7768C21.6873 47.8816 21.5073 47.9377 21.3229 47.9375Z" fill="#F9AB3E"/>
<path id="Vector_8" d="M5.91675 37.0626H22.2292C22.3841 37.0637 22.5366 37.0251 22.6721 36.9503C22.8077 36.8754 22.9217 36.767 23.0033 36.6354C23.0848 36.5038 23.1312 36.3534 23.1378 36.1987C23.1445 36.0441 23.1112 35.8903 23.0412 35.7521L22.135 33.9396C22.0276 33.7245 21.8391 33.5609 21.611 33.4848C21.3829 33.4086 21.1339 33.4262 20.9188 33.5336C20.7037 33.6411 20.5401 33.8296 20.4639 34.0577C20.3878 34.2857 20.4054 34.5347 20.5128 34.7498L20.7629 35.2501H5.91675C5.6764 35.2501 5.44589 35.3456 5.27593 35.5155C5.10598 35.6855 5.0105 35.916 5.0105 36.1563C5.0105 36.3967 5.10598 36.6272 5.27593 36.7971C5.44589 36.9671 5.6764 37.0626 5.91675 37.0626Z" fill="#F9AB3E"/>
</g>
</g>
</svg>
