<svg width="58" height="50" viewBox="0 0 58 50" fill="none" xmlns="http://www.w3.org/2000/svg">
<g id="Group">
<path id="Vector" d="M48.2013 0.653076C43.7696 0.653076 40.2681 4.20936 40.2681 8.64104C40.2681 13.0727 43.8244 16.5743 48.2013 16.5743C52.5783 16.5743 56.1893 13.018 56.1893 8.58633C56.1893 4.15465 52.633 0.653076 48.2013 0.653076ZM48.2013 14.8235C44.7545 14.8235 41.9641 12.0332 41.9641 8.58633C41.9641 5.13947 44.8092 2.40386 48.2013 2.40386C51.6482 2.40386 54.4385 5.19418 54.4385 8.64104C54.4385 12.0879 51.6482 14.8235 48.2013 14.8235Z" fill="#F9AB3E"/>
<path id="Vector_2" d="M44.3715 17.6138C44.0979 17.2308 43.4961 17.1761 43.1131 17.4497L34.2497 24.5075L22.8149 19.7476C22.5414 19.6381 22.2131 19.6929 21.9942 19.857L9.73873 28.6109C9.35574 28.8845 9.24632 29.4316 9.51988 29.8146C9.68402 30.0882 9.95758 30.1976 10.2311 30.1976C10.3953 30.1976 10.5594 30.1429 10.7235 30.0334L22.5961 21.5531L34.0856 26.313C34.3592 26.4224 34.7421 26.3677 34.961 26.2036L44.2073 18.8722C44.5903 18.5986 44.645 17.9968 44.3715 17.6138Z" fill="#F9AB3E"/>
<path id="Vector_3" d="M57.1741 47.596H53.1254V22.2643C53.1254 21.7719 52.7424 21.3889 52.25 21.3889H44.2074C43.715 21.3889 43.332 21.7719 43.332 22.2643V47.596H40.3775V31.0182C40.3775 30.5258 39.9945 30.1428 39.5021 30.1428H31.4047C30.9123 30.1428 30.5293 30.5258 30.5293 31.0182V47.596H27.5749V29.7052C27.5749 29.2127 27.1919 28.8298 26.6995 28.8298H18.6568C18.1644 28.8298 17.7814 29.2127 17.7814 29.7052V47.596H14.827V34.8481C14.827 34.3557 14.444 33.9727 13.9516 33.9727H5.85419C5.36178 33.9727 4.9788 34.3557 4.9788 34.8481V47.596H0.875393C0.382985 47.596 0 47.979 0 48.4714C0 48.9638 0.382985 49.3468 0.875393 49.3468H57.1194C57.6118 49.3468 57.9948 48.9638 57.9948 48.4714C58.0495 47.979 57.6665 47.596 57.1741 47.596ZM13.0215 47.596H6.72959V35.7235H13.0215V47.596ZM25.8241 47.596H19.5322V30.5805H25.8241V47.596ZM38.572 47.596H32.2801V31.8936H38.572V47.596ZM51.3746 47.596H45.0828V23.1397H51.3746V47.596Z" fill="#143A53"/>
<path id="Vector_4" d="M50.554 9.40698C50.6634 9.57111 50.6634 9.68054 50.7181 9.84467C50.7728 10.0088 50.7728 10.1182 50.7728 10.2824C50.7728 10.5012 50.7728 10.6654 50.7181 10.8295L50.554 11.3219C50.4445 11.486 50.3898 11.6502 50.2804 11.7596C50.171 11.9237 50.0616 12.0332 49.9521 12.1426C49.788 12.252 49.6786 12.3614 49.5144 12.4161C49.3503 12.5256 49.1862 12.5803 49.022 12.635L49.022 12.635H48.9673V13.7839H47.6542V12.6897H47.5448H47.5448C47.3807 12.6897 47.2712 12.6897 47.1071 12.635C46.943 12.5803 46.7788 12.5803 46.6694 12.5256C46.56 12.5256 46.3958 12.4709 46.2864 12.4161C46.1223 12.3614 46.0129 12.3067 45.794 12.3614L45.6299 12.3067V12.1426L45.7393 11.1578L45.794 10.7748L46.1223 10.9389C46.177 10.9389 46.2317 10.9936 46.2864 10.9936C46.3411 10.9936 46.3959 11.0483 46.4506 11.0483C46.56 11.1031 46.6694 11.1031 46.7788 11.1578C46.8883 11.2125 46.9977 11.2672 47.1071 11.2672C47.1618 11.2672 47.2712 11.3219 47.3807 11.3219H48.0919C48.2013 11.3219 48.3108 11.2672 48.3655 11.2672C48.4202 11.2125 48.5296 11.2125 48.5843 11.1578C48.6938 11.1031 48.7485 11.0483 48.8032 10.9936L48.8032 10.9936L48.9673 10.8295C49.022 10.7748 49.0767 10.6654 49.0767 10.6106V10.3371C49.0767 10.2277 49.022 10.1182 49.022 10.0635C48.9673 9.9541 48.9673 9.89938 48.9126 9.84467L48.7485 9.68054C48.6938 9.68054 48.6391 9.62583 48.5844 9.57113L48.5843 9.57111C48.5296 9.5164 48.4202 9.5164 48.3655 9.46169C48.3108 9.40698 48.2013 9.35226 48.1466 9.35226C48.0372 9.29755 47.8731 9.24284 47.709 9.18813L47.7089 9.18813C47.5995 9.13342 47.4354 9.02399 47.2712 8.96928C47.1618 8.91457 46.9977 8.85986 46.8883 8.75043C46.7241 8.69572 46.6147 8.5863 46.5053 8.47688L46.5053 8.47687C46.3959 8.36745 46.3411 8.25802 46.2317 8.1486C46.177 8.03917 46.0676 7.87504 46.0129 7.76561C45.9034 7.60148 45.9034 7.49205 45.8487 7.32792C45.794 7.16378 45.794 7.05436 45.794 6.89022C45.794 6.72608 45.794 6.50724 45.8487 6.3431L46.0129 5.85069C46.0676 5.68655 46.1223 5.52242 46.2317 5.41299C46.3411 5.24886 46.4506 5.13943 46.56 5.03001C46.6694 4.92059 46.7788 4.81116 46.943 4.75645C47.1071 4.64702 47.2712 4.59231 47.4354 4.5376H47.4901V3.44336H48.8032V4.48289H48.8579C48.9673 4.48289 49.022 4.5376 49.1315 4.5376C49.2409 4.5376 49.3503 4.59231 49.405 4.59231C49.5144 4.59231 49.5691 4.64703 49.6239 4.64703C49.6786 4.64703 49.788 4.70174 49.8427 4.70174L50.0616 4.75645V4.9753L49.9521 5.85069L49.8974 6.17896L49.6239 6.06954C49.5691 6.06954 49.5144 6.01483 49.405 6.01483C49.3503 6.01483 49.2409 5.96012 49.1862 5.96012C49.1315 5.96012 49.022 5.9054 48.9126 5.9054C48.8032 5.85069 48.7485 5.85069 48.639 5.85069H48.3108C48.2014 5.85069 48.1466 5.85069 48.0372 5.9054C47.9278 5.9054 47.8184 5.96012 47.7637 6.01483L47.5995 6.17896C47.5448 6.23368 47.5448 6.3431 47.4901 6.39781C47.4901 6.45252 47.4354 6.56195 47.4354 6.61666V6.89022C47.4354 6.94493 47.4354 7.05436 47.4901 7.10907C47.4901 7.21849 47.5448 7.27321 47.5995 7.32792L47.7637 7.49205C47.8184 7.54677 47.9278 7.54677 47.9825 7.60148C48.0372 7.65619 48.1466 7.65619 48.2013 7.7109C48.2561 7.76561 48.3655 7.82033 48.4202 7.82033C48.5296 7.87504 48.6938 7.92975 48.8579 7.98446C49.022 8.03917 49.1315 8.1486 49.2956 8.20331C49.405 8.25802 49.5692 8.31273 49.6786 8.42216C49.8427 8.47687 49.9521 8.58629 50.0615 8.69571L50.0616 8.69572C50.171 8.80514 50.2257 8.91457 50.3351 9.02399C50.4445 9.13342 50.4993 9.29755 50.554 9.40698Z" fill="#F9AB3E"/>
</g>
</svg>
