<svg width="39" height="52" viewBox="0 0 39 52" fill="none" xmlns="http://www.w3.org/2000/svg">
<g id="Group">
<path id="Vector" d="M1.20825 12.4062C0.9679 12.4062 0.737391 12.5017 0.567437 12.6717C0.397482 12.8416 0.302002 13.0721 0.302002 13.3125V48.6562C0.302722 49.3771 0.589392 50.0682 1.0991 50.5779C1.60881 51.0876 2.29992 51.3743 3.02075 51.375H21.1458C21.3861 51.375 21.6166 51.2795 21.7866 51.1096C21.9565 50.9396 22.052 50.7091 22.052 50.4688C22.052 50.2284 21.9565 49.9979 21.7866 49.8279C21.6166 49.658 21.3861 49.5625 21.1458 49.5625H13.9773C15.2107 43.0692 24.6194 43.8296 24.7708 50.4688C24.7708 50.7091 24.8662 50.9396 25.0362 51.1096C25.2061 51.2795 25.4366 51.375 25.677 51.375H35.6458C36.3666 51.3743 37.0577 51.0876 37.5674 50.5779C38.0771 50.0682 38.3638 49.3771 38.3645 48.6562V6.96875C38.3638 6.24791 38.0771 5.55681 37.5674 5.0471C37.0577 4.53739 36.3666 4.25072 35.6458 4.25H27.4895V2.4375C27.489 1.95694 27.2979 1.4962 26.9581 1.1564C26.6183 0.816593 26.1576 0.62548 25.677 0.625H12.9895C12.5089 0.62548 12.0482 0.816593 11.7084 1.1564C11.3686 1.4962 11.1775 1.95694 11.177 2.4375V4.25H3.02075C2.29992 4.25072 1.60881 4.53739 1.0991 5.0471C0.589392 5.55681 0.302722 6.24791 0.302002 6.96875V8.78125C0.302002 9.0216 0.397482 9.25211 0.567437 9.42207C0.737391 9.59202 0.9679 9.6875 1.20825 9.6875C3.16666 9.58509 1.06325 6.16672 3.02075 6.0625H11.177V7.875C11.1775 8.35556 11.3686 8.8163 11.7084 9.1561C12.0482 9.49591 12.5089 9.68702 12.9895 9.6875H19.3333C19.5736 9.6875 19.8041 9.59202 19.9741 9.42207C20.144 9.25211 20.2395 9.0216 20.2395 8.78125C20.2395 8.5409 20.144 8.31039 19.9741 8.14043C19.8041 7.97048 19.5736 7.875 19.3333 7.875H12.9895V2.4375H25.677V7.875H23.8645C23.6241 7.875 23.3936 7.97048 23.2237 8.14043C23.0537 8.31039 22.9583 8.5409 22.9583 8.78125C22.9583 9.0216 23.0537 9.25211 23.2237 9.42207C23.3936 9.59202 23.6241 9.6875 23.8645 9.6875H25.677C26.1576 9.68702 26.6183 9.49591 26.9581 9.1561C27.2979 8.8163 27.489 8.35556 27.4895 7.875V6.0625H35.6458C35.886 6.06274 36.1164 6.1583 36.2863 6.3282C36.4562 6.4981 36.5518 6.72847 36.552 6.96875V48.6562C36.5518 48.8965 36.4562 49.1269 36.2863 49.2968C36.1164 49.4667 35.886 49.5623 35.6458 49.5625H32.927V48.5928C32.9292 48.1953 32.8018 47.8079 32.564 47.4893C32.3262 47.1708 31.991 46.9384 31.6093 46.8274L30.8046 46.5873C30.5336 46.1052 30.4013 45.5496 30.1856 45.1817C30.1763 45.1553 30.176 45.1267 30.1847 45.1001L30.5898 44.3715C30.7786 44.0218 30.8494 43.6205 30.7918 43.2273C30.7341 42.8341 30.5511 42.47 30.2699 42.1892L27.6227 39.5339C27.3403 39.2519 26.9743 39.0687 26.5792 39.0116C26.1842 38.9544 25.7813 39.0264 25.4305 39.2168L24.7082 39.6137C24.672 39.6345 24.6203 39.611 24.5958 39.5983C24.2161 39.359 23.628 39.263 23.2093 38.9811L22.9755 38.1963C22.865 37.8137 22.6326 37.4776 22.3136 37.2391C21.9946 37.0006 21.6065 36.8728 21.2083 36.875H17.4573C17.0598 36.8728 16.6724 37.0002 16.3538 37.238C16.0353 37.4758 15.8029 37.811 15.6919 38.1927L15.45 39.0038C15.0032 39.2421 14.4585 39.3726 14.0616 39.6037C14.0464 39.6122 14.0297 39.6176 14.0125 39.6196C13.9952 39.6216 13.9777 39.6202 13.961 39.6155L13.236 39.2168C12.885 39.0266 12.482 38.9548 12.0869 39.0119C11.6918 39.069 11.3256 39.2521 11.0429 39.5339L8.4075 42.1784C8.1214 42.4611 7.93501 42.8291 7.87649 43.227C7.81796 43.625 7.89047 44.0311 8.08307 44.3842L8.47819 45.0938C8.35856 45.5469 8.07763 45.971 7.93625 46.4948C7.93031 46.5172 7.91893 46.5378 7.90311 46.5547C7.8873 46.5716 7.86755 46.5844 7.84563 46.5918L7.06081 46.8265C6.67819 46.937 6.3421 47.1694 6.10362 47.4884C5.86513 47.8074 5.73728 48.1955 5.7395 48.5937V49.5625H3.02075C2.78047 49.5623 2.5501 49.4667 2.3802 49.2968C2.2103 49.1269 2.11474 48.8965 2.1145 48.6562V13.3125C2.1145 13.0721 2.01902 12.8416 1.84907 12.6717C1.67911 12.5017 1.4486 12.4062 1.20825 12.4062ZM7.57556 48.5638L8.34135 48.3354C9.4216 48.1243 9.69619 46.861 10.0795 46.0263C10.5789 45.1717 10.1212 44.231 9.68078 43.4689L12.3633 40.8045C12.7036 41.0995 13.119 41.2944 13.5634 41.3677C14.0078 41.441 14.4638 41.3897 14.8808 41.2196C15.7055 40.8362 16.987 40.5553 17.1927 39.4995L17.4573 38.6875L21.2382 38.7111L21.4666 39.4768C21.6777 40.5589 22.9501 40.8326 23.7757 41.215C24.6339 41.7171 25.5764 41.2531 26.3404 40.8136L28.9993 43.5024L28.587 44.2437C28.0287 45.2551 28.6631 46.0925 29.0247 47.0921C29.3029 48.0545 30.2753 48.3563 31.1145 48.5928V49.5625H26.5198C25.2801 41.157 13.3828 41.1643 12.1467 49.5625H7.56378L7.57556 48.5638Z" fill="#143A53"/>
<path id="Vector_2" d="M9.63013 18.4846C9.80007 18.6545 10.0305 18.7499 10.2708 18.7499C10.5112 18.7499 10.7416 18.6545 10.9116 18.4846L14.5366 14.8596C14.7016 14.6886 14.793 14.4597 14.7909 14.2221C14.7889 13.9845 14.6936 13.7572 14.5255 13.5892C14.3575 13.4211 14.1302 13.3258 13.8926 13.3238C13.655 13.3217 13.426 13.413 13.2551 13.5781L10.2708 16.5624L9.09907 15.3906C8.92815 15.2255 8.69922 15.1342 8.46161 15.1363C8.22399 15.1383 7.99669 15.2336 7.82867 15.4017C7.66064 15.5697 7.56533 15.797 7.56327 16.0346C7.5612 16.2722 7.65255 16.5011 7.81763 16.6721L9.63013 18.4846ZM7.81763 23.9221L9.63013 25.7346C9.80007 25.9045 10.0305 25.9999 10.2708 25.9999C10.5112 25.9999 10.7416 25.9045 10.9116 25.7346L14.5366 22.1096C14.7016 21.9386 14.793 21.7097 14.7909 21.4721C14.7889 21.2345 14.6936 21.0072 14.5255 20.8392C14.3575 20.6711 14.1302 20.5758 13.8926 20.5738C13.655 20.5717 13.426 20.663 13.2551 20.8281L10.2708 23.8124L9.09907 22.6406C8.92815 22.4755 8.69922 22.3842 8.46161 22.3863C8.22399 22.3883 7.99669 22.4836 7.82867 22.6517C7.66064 22.8197 7.56533 23.047 7.56327 23.2846C7.5612 23.5222 7.65255 23.7511 7.81763 23.9221ZM7.81763 31.1721L9.63013 32.9846C9.80007 33.1545 10.0305 33.2499 10.2708 33.2499C10.5112 33.2499 10.7416 33.1545 10.9116 32.9846L14.5366 29.3596C14.7016 29.1886 14.793 28.9597 14.7909 28.7221C14.7889 28.4845 14.6936 28.2572 14.5255 28.0892C14.3575 27.9211 14.1302 27.8258 13.8926 27.8238C13.655 27.8217 13.426 27.913 13.2551 28.0781L10.2708 31.0624L9.09907 29.8906C8.92815 29.7255 8.69922 29.6342 8.46161 29.6363C8.22399 29.6383 7.99669 29.7336 7.82867 29.9017C7.66064 30.0697 7.56533 30.297 7.56327 30.5346C7.5612 30.7722 7.65255 31.0011 7.81763 31.1721ZM19.3333 16.9376H30.2083C30.4487 16.9376 30.6792 16.8421 30.8492 16.6722C31.0191 16.5022 31.1146 16.2717 31.1146 16.0313C31.1146 15.791 31.0191 15.5605 30.8492 15.3905C30.6792 15.2206 30.4487 15.1251 30.2083 15.1251H19.3333C19.093 15.1251 18.8625 15.2206 18.6925 15.3905C18.5226 15.5605 18.4271 15.791 18.4271 16.0313C18.4271 16.2717 18.5226 16.5022 18.6925 16.6722C18.8625 16.8421 19.093 16.9376 19.3333 16.9376ZM19.3333 24.1876H30.2083C30.4487 24.1876 30.6792 24.0921 30.8492 23.9222C31.0191 23.7522 31.1146 23.5217 31.1146 23.2813C31.1146 23.041 31.0191 22.8105 30.8492 22.6405C30.6792 22.4706 30.4487 22.3751 30.2083 22.3751H19.3333C19.093 22.3751 18.8625 22.4706 18.6925 22.6405C18.5226 22.8105 18.4271 23.041 18.4271 23.2813C18.4271 23.5217 18.5226 23.7522 18.6925 23.9222C18.8625 24.0921 19.093 24.1876 19.3333 24.1876ZM19.3333 31.4376H30.2083C30.4487 31.4376 30.6792 31.3421 30.8492 31.1722C31.0191 31.0022 31.1146 30.7717 31.1146 30.5313C31.1146 30.291 31.0191 30.0605 30.8492 29.8905C30.6792 29.7206 30.4487 29.6251 30.2083 29.6251H19.3333C19.093 29.6251 18.8625 29.7206 18.6925 29.8905C18.5226 30.0605 18.4271 30.291 18.4271 30.5313C18.4271 30.7717 18.5226 31.0022 18.6925 31.1722C18.8625 31.3421 19.093 31.4376 19.3333 31.4376Z" fill="#F9AB3E"/>
</g>
</svg>
