<svg width="109" height="62" viewBox="0 0 109 62" fill="none" xmlns="http://www.w3.org/2000/svg">
<path d="M0.062851 28.5379H6.23661V45.3537H7.87455V28.5379H14.0483V27.9797H0.062851C0.062851 28.1193 0.062851 28.2588 0.062851 28.5379Z" fill="#003A55"/>
<path d="M27.6559 36.4225H17.5133V28.0495H15.8124V45.3537H17.5133V36.9807H27.6559V45.3537H29.3569V27.9797H27.6559V36.4225Z" fill="#003A55"/>
<path d="M31.31 45.2838H31.814C32.5699 43.3999 33.6409 40.6089 35.0899 36.9109H39.8777C40.5706 38.7948 41.7046 41.5858 43.1535 45.2838H44.8545C43.3425 41.4462 41.0746 35.6549 38.0507 27.9099C36.5388 31.8173 34.3339 37.6086 31.31 45.2838ZM35.2788 36.3527C35.7828 35.0967 36.4758 33.2128 37.4838 30.7707C37.9877 32.0266 38.6807 33.9105 39.6887 36.3527H35.2788Z" fill="#003A55"/>
<path d="M54.8712 37.3296C55.1862 37.2598 55.5012 37.19 55.8162 37.0505C56.1942 36.9807 56.5092 36.8411 56.8242 36.6318C57.4541 36.2829 57.9581 35.8643 58.3361 35.2363C58.7141 34.6083 58.9661 33.8408 58.9661 32.7942C58.9661 32.0267 58.8401 31.3987 58.6511 30.8405C58.4621 30.2823 58.2101 29.8637 57.8951 29.5148C57.3281 28.817 56.6352 28.3984 55.8162 28.2588C54.9972 28.0495 54.3042 27.9797 53.6743 27.9797H47.1225V45.2839H48.8235V37.4691H52.2253C53.9263 37.4691 55.2492 38.2366 56.3202 39.7019C57.3911 41.2369 57.9581 43.0511 58.1471 45.2839H59.848C59.722 43.4697 59.2811 41.8649 58.4621 40.3299C57.6431 38.7948 56.4462 37.818 54.8712 37.3296ZM53.0443 36.9109H48.7605V28.5379H53.6743C53.9893 28.5379 54.3672 28.5379 54.6822 28.6077C54.9972 28.6077 55.3122 28.7473 55.5642 28.817C56.0682 29.0264 56.5092 29.445 56.8242 30.073C57.1391 30.701 57.3281 31.608 57.3281 32.7942C57.3281 33.4919 57.2021 34.0501 57.0131 34.4688C56.8242 34.9572 56.5722 35.3061 56.2572 35.655C55.7532 36.2132 55.1232 36.562 54.4302 36.7016C53.7373 36.8411 53.2963 36.9109 53.0443 36.9109Z" fill="#003A55"/>
<path d="M77.3613 28.0496C76.2903 31.2592 74.7154 36.0039 72.5735 42.4232C71.8805 40.5393 70.8096 37.6087 69.4236 33.8409C68.7936 35.7248 67.9117 38.6553 66.7147 42.4232C65.5808 39.2135 63.8168 34.4688 61.4859 28.0496H59.848C61.2339 31.8872 63.3758 37.6785 66.2107 45.3537C66.8407 43.4698 67.7227 40.609 68.9196 36.7714C69.6126 38.6553 70.6836 41.5161 72.0695 45.3537C73.3295 41.5161 75.2824 35.7248 77.8023 28.0496C77.7393 28.0496 77.6133 28.0496 77.3613 28.0496Z" fill="#003A55"/>
<path d="M76.9828 45.2838H77.4868C78.2428 43.3999 79.3137 40.6089 80.7627 36.9109H85.5505C86.2435 38.7948 87.3774 41.5858 88.8263 45.2838H90.5273C89.0153 41.4462 86.7474 35.6549 83.7235 27.9099C82.2746 31.8173 80.0067 37.6086 76.9828 45.2838ZM80.9517 36.3527C81.4556 35.0967 82.1486 33.2128 83.1566 30.7707C83.6605 32.0266 84.3535 33.9105 85.3615 36.3527H80.9517Z" fill="#003A55"/>
<path d="M104.639 28.0496V36.4225H94.4963V28.0496H92.7953V45.3537H94.4963V36.9807H104.639V45.3537H106.34V28.0496H104.639Z" fill="#003A55"/>
<path d="M11.3396 6.69847C10.7726 6.27983 10.1426 5.93095 9.51263 5.72163C8.81966 5.44253 8.18968 5.30298 7.43371 5.30298C6.11076 5.30298 4.85081 5.72163 3.77985 6.48915C2.6459 7.25667 1.76393 8.3033 1.13396 9.62902C0.818968 10.3268 0.503981 11.0943 0.314988 11.8618C0.125995 12.6991 0 13.5364 0 14.4435C0 15.3506 0.125995 16.1878 0.314988 16.9554C0.503981 17.7229 0.755971 18.5602 1.13396 19.2579C1.76393 20.5837 2.6459 21.6303 3.77985 22.3978C4.91381 23.1653 6.11076 23.584 7.43371 23.584C8.75666 23.584 9.95362 23.1653 11.0876 22.3978C12.2215 21.6303 13.1035 20.5139 13.7335 19.2579C14.0485 18.5602 14.3634 17.7927 14.5524 16.9554C14.7414 16.1181 14.8674 15.2808 14.8674 14.4435C14.8674 12.7689 14.5524 11.3036 13.9225 9.90812C13.2295 8.5824 12.4105 7.466 11.3396 6.69847ZM12.8515 16.8158C12.7255 17.5833 12.4735 18.2811 12.2215 18.9788C11.7175 20.165 11.0876 21.2116 10.2056 21.9094C9.32364 22.6769 8.44168 23.0258 7.43371 23.0258C6.86674 23.0258 6.36276 22.8862 5.85877 22.6769C5.35479 22.4676 4.91381 22.1187 4.47283 21.7001C3.65386 20.9325 3.02388 19.9557 2.5199 18.63C2.01592 17.374 1.82693 15.9088 1.82693 14.3737C1.82693 12.8387 2.07892 11.4432 2.5199 10.1174C3.02388 8.86149 3.65386 7.81487 4.47283 7.04735C4.91381 6.6287 5.35479 6.27983 5.85877 6.0705C6.42575 6.00073 6.92973 5.86118 7.49671 5.86118C8.50467 5.86118 9.44964 6.21005 10.2686 6.97757C11.0876 7.7451 11.7805 8.72194 12.2845 9.90812C12.5365 10.5361 12.7885 11.2338 12.9145 12.0014C13.0405 12.7689 13.1035 13.5364 13.1035 14.3737C13.1035 15.211 12.9775 16.0483 12.8515 16.8158Z" fill="#003A55"/>
<path d="M31.562 11.9316C31.373 11.0943 31.058 10.3966 30.68 9.69884C29.987 8.37312 29.1051 7.3265 27.9081 6.55897C26.7742 5.79145 25.5142 5.3728 24.1913 5.3728C23.4983 5.3728 22.8053 5.51235 22.1123 5.72168C21.4194 5.931 20.7894 6.27988 20.2224 6.69852C19.2145 7.53582 18.3325 8.65222 17.6395 10.0477C17.0095 11.3734 16.6316 12.9085 16.6316 14.5831V14.8622H28.0341V14.2342H18.4585C18.4585 13.4667 18.5845 12.6992 18.7105 11.9316C18.8995 11.1641 19.0885 10.4664 19.4035 9.83839C19.9074 8.65222 20.6004 7.74515 21.4194 6.97762C22.3013 6.27988 23.1833 5.86123 24.1913 5.86123C25.1992 5.86123 26.1442 6.2101 27.0262 6.97762C27.9081 7.74515 28.6011 8.72199 29.1681 9.90817C29.4831 10.5361 29.6721 11.3037 29.8611 12.0712C29.987 12.8387 30.113 13.6062 30.113 14.4435C30.113 15.2808 30.05 16.0484 29.8611 16.8159C29.6721 17.5834 29.4831 18.2811 29.1681 18.9091C28.6641 20.1651 27.9081 21.1419 27.0262 21.8397C26.1442 22.6072 25.1992 22.9561 24.1913 22.9561C23.2463 22.9561 22.3643 22.7467 21.4824 22.2583C20.6004 21.9094 19.8444 21.1419 19.2145 20.0953C19.0885 20.2348 18.9625 20.5139 18.7105 20.793C19.3405 21.6303 20.2224 22.3281 21.1674 22.8165C22.1123 23.3049 23.1203 23.584 24.1913 23.584C24.8842 23.584 25.5772 23.4445 26.2702 23.2352C26.9632 23.0258 27.5931 22.677 28.1601 22.2583C29.2311 21.421 30.113 20.3744 30.806 18.9789C31.499 17.6532 31.877 16.1181 31.877 14.5133C31.877 13.6062 31.751 12.7689 31.562 11.9316Z" fill="#003A55"/>
<path d="M32.8222 22.6768C33.0742 22.8861 33.3891 23.0955 33.8301 23.3048C34.2711 23.5141 34.7121 23.6537 35.2161 23.6537H35.4051C35.5311 23.6537 35.7201 23.6537 35.909 23.5839C36.287 23.5141 36.728 23.3048 37.295 23.0257C37.862 22.7466 38.366 22.1884 38.8699 21.4209C39.2479 20.7929 39.6259 19.9556 39.8779 18.909C40.0039 18.5601 40.0669 18.1415 40.1299 17.7228H106.277V16.746V5.86108H104.576V16.746H40.1299C40.1929 16.1878 40.1929 15.6296 40.1929 15.0714V5.86108H38.4289V15.9087C38.4289 16.2575 38.4289 16.6064 38.366 17.0251C38.303 17.7228 38.24 18.4903 38.114 19.2578C37.988 20.0254 37.799 20.7231 37.484 21.3511C37.232 21.8395 36.917 22.2582 36.476 22.607C36.098 22.9559 35.5941 23.0955 34.9641 23.0955C34.3341 23.0955 33.8301 22.9559 33.3261 22.607L32.5702 22.1186C32.5072 22.1884 32.4442 22.2582 32.3812 22.3977L32.5072 22.4675C32.5702 22.5373 32.6962 22.607 32.8222 22.6768Z" fill="#003A55"/>
<path d="M9.51283 2.79099C10.206 2.79099 10.7731 2.16302 10.7731 1.3955C10.7731 0.627973 10.206 0 9.51283 0C8.81965 0 8.2525 0.627973 8.2525 1.3955C8.2525 2.16302 8.81965 2.79099 9.51283 2.79099Z" fill="#D0C7C0"/>
<path d="M5.35558 2.79099C6.04876 2.79099 6.61591 2.16302 6.61591 1.3955C6.61591 0.627973 6.04876 0 5.35558 0C4.66241 0 4.09526 0.627973 4.09526 1.3955C4.09526 2.16302 4.66241 2.79099 5.35558 2.79099Z" fill="#D0C7C0"/>
<path d="M104.261 20.2322C104.304 19.7109 104.607 19.2765 104.995 18.9724C104.779 19.0593 104.52 19.1462 104.261 19.1462C104.002 19.1462 103.786 19.1027 103.571 19.0159C103.959 19.2765 104.218 19.7109 104.261 20.2322Z" fill="#D0C7C0"/>
<path d="M105.642 21.0143C106.117 21.0143 106.505 20.6233 106.505 20.1455C106.505 19.6676 106.117 19.2766 105.642 19.2766C105.167 19.2766 104.779 19.6676 104.779 20.1455C104.779 20.6233 105.167 21.0143 105.642 21.0143Z" fill="#D0C7C0"/>
<path d="M102.924 21.0143C103.398 21.0143 103.787 20.6233 103.787 20.1455C103.787 19.6676 103.398 19.2766 102.924 19.2766C102.449 19.2766 102.06 19.6676 102.06 20.1455C102.06 20.6233 102.449 21.0143 102.924 21.0143Z" fill="#D0C7C0"/>
<path d="M104.304 18.7553C104.781 18.7553 105.167 18.3663 105.167 17.8864C105.167 17.4066 104.781 17.0176 104.304 17.0176C103.827 17.0176 103.441 17.4066 103.441 17.8864C103.441 18.3663 103.827 18.7553 104.304 18.7553Z" fill="#D0C7C0"/>
<path d="M106.277 61.7507H33.0112C30.0504 61.7507 27.6564 59.0993 27.6564 55.8199V51.4241H100.923C103.884 51.4241 106.277 54.0755 106.277 57.3549V61.7507Z" fill="#187FD3"/>
<path d="M40.0038 53.8665H40.7598L42.8387 59.2391H41.8308L41.3898 57.9832H39.2479L38.8069 59.2391H37.8619L40.0038 53.8665ZM41.0748 57.2156L40.3188 54.9829L39.5628 57.2156H41.0748Z" fill="white"/>
<path d="M50.4615 55.1223C50.2725 54.9129 50.0835 54.7734 49.9575 54.7036C49.8315 54.6338 49.6425 54.5641 49.4535 54.5641C49.2015 54.5641 48.9495 54.6338 48.7605 54.7036C48.5715 54.7734 48.3825 54.9129 48.2565 55.1223C48.1305 55.3316 48.0045 55.5409 47.9415 55.7502C47.8785 55.9596 47.8156 56.2386 47.8156 56.5177C47.8156 56.7968 47.8785 57.076 47.9415 57.355C48.0045 57.6341 48.1305 57.8435 48.2565 57.983C48.3825 58.1226 48.5715 58.2621 48.7605 58.4017C48.9495 58.5412 49.2015 58.5412 49.4535 58.5412C49.6425 58.5412 49.8315 58.4714 50.0205 58.4017C50.2095 58.3319 50.3985 58.1226 50.5244 57.9132L51.2174 58.4714C51.0284 58.8203 50.7134 59.0296 50.3985 59.239C50.0835 59.4483 49.7685 59.4483 49.3905 59.4483C49.0125 59.4483 48.6345 59.3785 48.3195 59.239C48.0045 59.0994 47.8156 58.8901 47.5636 58.611C47.3116 58.3319 47.1856 58.0528 47.0596 57.7039C46.9336 57.355 46.8706 56.9364 46.8706 56.5177C46.8706 56.0991 46.9336 55.6805 47.0596 55.3316C47.1856 54.9827 47.3746 54.7036 47.5636 54.4245C47.7526 54.1454 48.0675 54.0059 48.3825 53.8663C48.6975 53.7268 49.0755 53.657 49.4535 53.657C49.7685 53.657 50.0835 53.7268 50.3355 53.8663C50.5874 54.0059 50.9024 54.2152 51.1544 54.4943L50.4615 55.1223Z" fill="white"/>
<path d="M57.3915 53.8665H58.1475L60.2264 59.2391H59.2184L58.7775 57.9832H56.6355L56.1946 59.2391H55.2496L57.3915 53.8665ZM58.4625 57.2156L57.7065 54.9829L56.9505 57.2156H58.4625Z" fill="white"/>
<path d="M64.6989 53.8665H66.6518C66.9668 53.8665 67.2818 53.9362 67.5968 54.006C67.9118 54.0758 68.1638 54.2851 68.4157 54.4944C68.6677 54.7037 68.8567 54.9829 68.9827 55.3317C69.1087 55.6806 69.1717 56.0992 69.1717 56.5179C69.1717 56.9365 69.1087 57.3552 68.9197 57.7041C68.7307 58.0529 68.5417 58.332 68.2897 58.5414C68.0378 58.7507 67.7858 58.96 67.4708 59.0298C67.1558 59.0996 66.8408 59.1693 66.5888 59.1693H64.7619L64.6989 53.8665ZM66.2108 58.4018C66.4628 58.4018 66.7148 58.332 66.9668 58.2623C67.2188 58.1925 67.4078 58.1227 67.5968 57.9134C67.7858 57.7041 67.9118 57.5645 68.0378 57.3552C68.1638 57.1459 68.1637 56.8668 68.1637 56.5179C68.1637 56.169 68.1008 55.8899 68.0378 55.6806C67.9748 55.4713 67.8488 55.2619 67.6598 55.1224C67.4708 54.9828 67.2818 54.8433 67.0928 54.7735C66.9038 54.7037 66.6518 54.634 66.3368 54.634H65.5179V58.332L66.2108 58.4018Z" fill="white"/>
<path d="M73.7705 53.8665H76.9834V54.7038H74.6525V56.0992H76.9204V56.9365H74.6525V58.4018H77.1094V59.2391H73.7705V53.8665Z" fill="white"/>
<path d="M81.8975 53.8665H83.2205L84.5434 57.6343L85.8664 53.8665H87.1893V59.2391H86.3704V54.7735L84.8584 59.2391H84.2284L82.7165 54.7735V59.2391H81.8975V53.8665Z" fill="white"/>
<path d="M93.4257 56.9365L91.5988 53.8665H92.6698L93.8667 56.0295L95.0637 53.8665H96.0716L94.2447 56.9365V59.2391H93.3627L93.4257 56.9365Z" fill="white"/>
</svg>
