<svg width="59" height="58" viewBox="0 0 59 58" fill="none" xmlns="http://www.w3.org/2000/svg">
<g id="tech">
<g id="Group 1000001856">
<path id="Vector" d="M16.2105 35.3204H5.40623C5.23944 35.3204 5.07948 35.2541 4.96154 35.1362C4.8436 35.0182 4.77734 34.8582 4.77734 34.6914C4.77734 34.5246 4.8436 34.3647 4.96154 34.2467C5.07948 34.1288 5.23944 34.0625 5.40623 34.0625H16.2105C16.3773 34.0625 16.5372 34.1288 16.6552 34.2467C16.7731 34.3647 16.8394 34.5246 16.8394 34.6914C16.8394 34.8582 16.7731 35.0182 16.6552 35.1362C16.5372 35.2541 16.3773 35.3204 16.2105 35.3204Z" fill="#F9AB3E"/>
<path id="Subtract" fill-rule="evenodd" clip-rule="evenodd" d="M3.3513 37.357C2.81939 37.357 2.29946 37.1989 1.85746 36.9027C1.41546 36.6066 1.07129 36.1858 0.868607 35.6937C0.665925 35.2015 0.613859 34.6602 0.719013 34.1384C0.824166 33.6167 1.0818 33.1379 1.45924 32.7628C1.83669 32.3878 2.31693 32.1333 2.83908 32.0318C3.36122 31.9302 3.90174 31.9861 4.39208 32.1924C4.88243 32.3987 5.3005 32.7461 5.59329 33.1905C5.88608 33.6349 6.04039 34.1563 6.03666 34.6886C6.03004 35.3975 5.7444 36.0752 5.24169 36.5747C4.73898 37.0743 4.05974 37.3553 3.3513 37.357ZM3.35149 33.2405C3.06995 33.2405 2.79471 33.3238 2.56037 33.48C2.32603 33.6361 2.14307 33.8582 2.03448 34.1181C1.9259 34.378 1.89655 34.6643 1.95012 34.9409C2.00369 35.2175 2.1378 35.4721 2.33556 35.6726C2.53333 35.8731 2.78593 36.0106 3.0616 36.0679C3.33727 36.1251 3.62369 36.0995 3.88486 35.9943C4.14602 35.889 4.37025 35.7089 4.52936 35.4764C4.68847 35.244 4.77535 34.9697 4.77907 34.6879C4.78157 34.4988 4.74649 34.311 4.67586 34.1354C4.60524 33.9599 4.50048 33.8002 4.36767 33.6655C4.23486 33.5309 4.07664 33.424 3.90219 33.351C3.72775 33.278 3.54056 33.2405 3.35149 33.2405Z" fill="#F9AB3E"/>
</g>
<g id="Group 1000001857">
<path id="Vector_2" d="M16.2145 26.5086H8.55467C8.38788 26.5086 8.22792 26.4423 8.10998 26.3243C7.99204 26.2063 7.92578 26.0462 7.92578 25.8793V17.4965C7.92578 17.3296 7.99204 17.1695 8.10998 17.0515C8.22792 16.9335 8.38788 16.8672 8.55467 16.8672C8.72146 16.8672 8.88142 16.9335 8.99936 17.0515C9.1173 17.1695 9.18356 17.3296 9.18356 17.4965V25.25H16.2145C16.3813 25.25 16.5413 25.3163 16.6592 25.4343C16.7772 25.5523 16.8434 25.7124 16.8434 25.8793C16.8434 26.0462 16.7772 26.2063 16.6592 26.3243C16.5413 26.4423 16.3813 26.5086 16.2145 26.5086Z" fill="#F9AB3E"/>
<path id="Subtract_2" fill-rule="evenodd" clip-rule="evenodd" d="M8.55449 18.1245C8.02338 18.1245 7.5042 17.9669 7.06259 17.6717C6.62099 17.3764 6.2768 16.9567 6.07355 16.4656C5.8703 15.9746 5.81713 15.4343 5.92074 14.913C6.02436 14.3917 6.28011 13.9129 6.65566 13.5371C7.03122 13.1613 7.5097 12.9053 8.03061 12.8016C8.55152 12.6979 9.09145 12.7512 9.58214 12.9546C10.0728 13.158 10.4922 13.5024 10.7873 13.9443C11.0824 14.3862 11.2398 14.9058 11.2398 15.4373C11.2382 16.1495 10.9547 16.832 10.4515 17.3356C9.94825 17.8392 9.26618 18.1229 8.55449 18.1245ZM8.55453 14.0098C8.27218 14.0098 7.99617 14.0936 7.76141 14.2505C7.52665 14.4075 7.34367 14.6306 7.23562 14.8917C7.12757 15.1527 7.0993 15.4399 7.15438 15.7171C7.20947 15.9942 7.34543 16.2487 7.54508 16.4485C7.74473 16.6483 7.9991 16.7844 8.27602 16.8395C8.55295 16.8946 8.83998 16.8663 9.10084 16.7582C9.3617 16.6501 9.58465 16.467 9.74152 16.232C9.89838 15.9971 9.98211 15.7209 9.98211 15.4384C9.98211 15.0595 9.8317 14.6961 9.56398 14.4282C9.29626 14.1603 8.93315 14.0098 8.55453 14.0098Z" fill="#F9AB3E"/>
</g>
<g id="Group 1000001863">
<path id="Vector_3" d="M25.8629 50.715H17.4609C17.2941 50.715 17.1342 50.6487 17.0162 50.5307C16.8983 50.4127 16.832 50.2526 16.832 50.0857C16.832 49.9188 16.8983 49.7587 17.0162 49.6407C17.1342 49.5226 17.2941 49.4563 17.4609 49.4563H25.234V42.4204C25.234 42.2534 25.3002 42.0934 25.4182 41.9753C25.5361 41.8573 25.6961 41.791 25.8629 41.791C26.0297 41.791 26.1896 41.8573 26.3076 41.9753C26.4255 42.0934 26.4918 42.2534 26.4918 42.4204V50.0857C26.4918 50.2526 26.4255 50.4127 26.3076 50.5307C26.1896 50.6487 26.0297 50.715 25.8629 50.715Z" fill="#F9AB3E"/>
<path id="Vector_4" d="M15.4061 52.7749C14.8749 52.7749 14.3558 52.6173 13.9142 52.322C13.4726 52.0268 13.1284 51.6071 12.9251 51.116C12.7219 50.625 12.6687 50.0847 12.7723 49.5634C12.8759 49.0421 13.1317 48.5633 13.5072 48.1875C13.8828 47.8117 14.3613 47.5557 14.8822 47.452C15.4031 47.3483 15.943 47.4016 16.4337 47.6049C16.9244 47.8083 17.3438 48.1528 17.6388 48.5947C17.9339 49.0366 18.0914 49.5562 18.0914 50.0877C18.0914 50.8004 17.8085 51.4839 17.3049 51.9878C16.8013 52.4918 16.1183 52.7749 15.4061 52.7749ZM15.4061 48.6591C15.1237 48.6591 14.8477 48.7429 14.6129 48.8998C14.3782 49.0568 14.1952 49.2799 14.0871 49.541C13.9791 49.802 13.9508 50.0892 14.0059 50.3664C14.061 50.6435 14.197 50.898 14.3966 51.0978C14.5963 51.2976 14.8506 51.4337 15.1276 51.4888C15.4045 51.5439 15.6915 51.5156 15.9524 51.4075C16.2132 51.2994 16.4362 51.1163 16.593 50.8813C16.7499 50.6464 16.8336 50.3702 16.8336 50.0877C16.8336 49.7088 16.6832 49.3454 16.4155 49.0775C16.1478 48.8096 15.7847 48.6591 15.4061 48.6591Z" fill="#F9AB3E"/>
</g>
<g id="Group 1000001858">
<path id="Vector_5" d="M25.3773 16.0798C25.4953 16.1979 25.6552 16.2642 25.822 16.2642C25.9888 16.2642 26.1488 16.1979 26.2667 16.0798C26.3846 15.9618 26.4509 15.8017 26.4509 15.6348V4.82282C26.4509 4.65591 26.3846 4.49583 26.2667 4.37781C26.1488 4.25979 25.9888 4.19348 25.822 4.19348C25.6552 4.19348 25.4953 4.25979 25.3773 4.37781C25.2594 4.49583 25.1931 4.65591 25.1931 4.82282V15.6348C25.1931 15.8017 25.2594 15.9618 25.3773 16.0798Z" fill="#F9AB3E"/>
<path id="Vector_6" fill-rule="evenodd" clip-rule="evenodd" d="M25.7947 5.37454C25.2627 5.37453 24.7428 5.21643 24.3008 4.92031C23.8588 4.62418 23.5146 4.20337 23.312 3.71124C23.1093 3.2191 23.0572 2.67782 23.1624 2.15603C23.2675 1.63424 23.5252 1.15545 23.9026 0.780396C24.28 0.405337 24.7603 0.150902 25.2824 0.0493553C25.8046 -0.0521916 26.3451 0.00372519 26.8354 0.210016C27.3258 0.416308 27.7439 0.763679 28.0367 1.20807C28.3294 1.65247 28.4838 2.17387 28.48 2.70615C28.4734 3.41507 28.1878 4.09279 27.685 4.59232C27.1823 5.09185 26.5031 5.37292 25.7947 5.37454ZM25.7946 1.2586C25.5131 1.25862 25.2379 1.34195 25.0035 1.49811C24.7692 1.65426 24.5862 1.87628 24.4776 2.13622C24.3691 2.39617 24.3397 2.68243 24.3933 2.95903C24.4468 3.23562 24.5809 3.49018 24.7787 3.69071C24.9765 3.89123 25.2291 4.02876 25.5048 4.086C25.7804 4.14324 26.0668 4.11762 26.328 4.01239C26.5892 3.90715 26.8134 3.72698 26.9725 3.49455C27.1316 3.26211 27.2185 2.98779 27.2222 2.70607C27.2247 2.51688 27.1896 2.32908 27.119 2.15357C27.0484 1.97806 26.9436 1.81834 26.8108 1.68368C26.678 1.54901 26.5198 1.44209 26.3453 1.36912C26.1709 1.29615 25.9837 1.25858 25.7946 1.2586Z" fill="#F9AB3E"/>
</g>
<g id="Group 1000001859">
<path id="Vector_7" d="M33.9531 16.2659C33.7863 16.2659 33.6264 16.1996 33.5084 16.0816C33.3905 15.9636 33.3242 15.8035 33.3242 15.6366V7.97126C33.3242 7.80435 33.3905 7.64427 33.5084 7.52625C33.6264 7.40822 33.7863 7.34192 33.9531 7.34192H42.3551C42.5218 7.34192 42.6818 7.40822 42.7997 7.52625C42.9177 7.64427 42.9839 7.80435 42.9839 7.97126C42.9839 8.13817 42.9177 8.29824 42.7997 8.41626C42.6818 8.53429 42.5218 8.60059 42.3551 8.60059H34.582V15.6366C34.582 15.8035 34.5157 15.9636 34.3978 16.0816C34.2799 16.1996 34.1199 16.2659 33.9531 16.2659Z" fill="#F9AB3E"/>
<path id="Vector_8" fill-rule="evenodd" clip-rule="evenodd" d="M44.4255 10.4488C43.8936 10.4487 43.3737 10.2907 42.9317 9.99453C42.4897 9.6984 42.1455 9.27759 41.9428 8.78545C41.7401 8.29332 41.6881 7.75203 41.7932 7.23025C41.8984 6.70846 42.156 6.22967 42.5335 5.85461C42.9109 5.47956 43.3912 5.22512 43.9133 5.12357C44.4354 5.02203 44.976 5.07794 45.4663 5.28424C45.9566 5.49053 46.3747 5.8379 46.6675 6.28229C46.9603 6.72669 47.1146 7.24809 47.1109 7.78037C47.1043 8.48929 46.8186 9.16701 46.3159 9.66654C45.8132 10.1661 45.134 10.4471 44.4255 10.4488ZM44.4255 6.33282C44.144 6.33284 43.8687 6.41617 43.6344 6.57233C43.4 6.72848 43.2171 6.9505 43.1085 7.21044C42.9999 7.47038 42.9706 7.75665 43.0241 8.03324C43.0777 8.30984 43.2118 8.5644 43.4096 8.76493C43.6073 8.96545 43.8599 9.10298 44.1356 9.16022C44.4113 9.21745 44.6977 9.19184 44.9589 9.0866C45.22 8.98137 45.4443 8.8012 45.6034 8.56877C45.7625 8.33633 45.8494 8.06201 45.8531 7.78029C45.8556 7.5911 45.8205 7.4033 45.7499 7.22779C45.6793 7.05228 45.5745 6.89256 45.4417 6.75789C45.3089 6.62323 45.1506 6.51631 44.9762 6.44334C44.8018 6.37037 44.6146 6.3328 44.4255 6.33282Z" fill="#F9AB3E"/>
</g>
<g id="Group 1000001861">
<path id="Vector_9" d="M50.6384 41.4205C50.4716 41.4205 50.3116 41.3542 50.1937 41.2362C50.0757 41.1182 50.0095 40.9581 50.0095 40.7912V33.0126H42.9785C42.8117 33.0126 42.6517 32.9463 42.5338 32.8283C42.4159 32.7102 42.3496 32.5502 42.3496 32.3832C42.3496 32.2163 42.4159 32.0563 42.5338 31.9382C42.6517 31.8202 42.8117 31.7539 42.9785 31.7539H50.6384C50.8052 31.7539 50.9651 31.8202 51.083 31.9382C51.201 32.0563 51.2672 32.2163 51.2672 32.3832V40.7912C51.2672 40.9581 51.201 41.1182 51.083 41.2362C50.9651 41.3542 50.8052 41.4205 50.6384 41.4205Z" fill="#F9AB3E"/>
<path id="Vector_10" fill-rule="evenodd" clip-rule="evenodd" d="M50.5564 45.7242C50.0245 45.7241 49.5045 45.566 49.0625 45.2699C48.6205 44.9738 48.2764 44.553 48.0737 44.0608C47.871 43.5687 47.8189 43.0274 47.9241 42.5056C48.0292 41.9838 48.2869 41.5051 48.6643 41.13C49.0418 40.7549 49.522 40.5005 50.0442 40.399C50.5663 40.2974 51.1068 40.3533 51.5972 40.5596C52.0875 40.7659 52.5056 41.1133 52.7984 41.5577C53.0912 42.0021 53.2455 42.5235 53.2417 43.0558C53.2351 43.7647 52.9495 44.4424 52.4468 44.9419C51.9441 45.4415 51.2648 45.7225 50.5564 45.7242ZM50.5564 41.6082C50.2748 41.6082 49.9996 41.6916 49.7652 41.8477C49.5309 42.0039 49.3479 42.2259 49.2394 42.4858C49.1308 42.7458 49.1014 43.032 49.155 43.3086C49.2086 43.5852 49.3427 43.8398 49.5404 44.0403C49.7382 44.2408 49.9908 44.3784 50.2665 44.4356C50.5421 44.4928 50.8286 44.4672 51.0897 44.362C51.3509 44.2568 51.5751 44.0766 51.7342 43.8442C51.8933 43.6117 51.9802 43.3374 51.9839 43.0557C51.9864 42.8665 51.9514 42.6787 51.8807 42.5032C51.8101 42.3277 51.7054 42.1679 51.5725 42.0333C51.4397 41.8986 51.2815 41.7917 51.1071 41.7187C50.9326 41.6458 50.7454 41.6082 50.5564 41.6082Z" fill="#F9AB3E"/>
</g>
<g id="Group 1000001860">
<path id="Vector_11" d="M53.7808 24.2461H42.9765C42.8098 24.2461 42.6498 24.1799 42.5319 24.0619C42.4139 23.944 42.3477 23.784 42.3477 23.6172C42.3477 23.4504 42.4139 23.2904 42.5319 23.1725C42.6498 23.0545 42.8098 22.9883 42.9765 22.9883H53.7808C53.9476 22.9883 54.1075 23.0545 54.2255 23.1725C54.3434 23.2904 54.4097 23.4504 54.4097 23.6172C54.4097 23.784 54.3434 23.944 54.2255 24.0619C54.1075 24.1799 53.9476 24.2461 53.7808 24.2461Z" fill="#F9AB3E"/>
<path id="Vector_12" fill-rule="evenodd" clip-rule="evenodd" d="M55.9802 26.2574C55.4483 26.2573 54.9284 26.0992 54.4864 25.8031C54.0444 25.507 53.7002 25.0862 53.4975 24.594C53.2948 24.1019 53.2428 23.5606 53.3479 23.0388C53.4531 22.5171 53.7107 22.0383 54.0882 21.6632C54.4656 21.2881 54.9458 21.0337 55.468 20.9322C55.9901 20.8306 56.5306 20.8865 57.021 21.0928C57.5113 21.2991 57.9294 21.6465 58.2222 22.0909C58.515 22.5353 58.6693 23.0567 58.6656 23.589C58.6589 24.2979 58.3733 24.9756 57.8706 25.4751C57.3679 25.9747 56.6887 26.2557 55.9802 26.2574ZM55.9802 22.1414C55.6986 22.1414 55.4234 22.2248 55.1891 22.3809C54.9547 22.5371 54.7718 22.7591 54.6632 23.019C54.5546 23.279 54.5252 23.5652 54.5788 23.8418C54.6324 24.1184 54.7665 24.373 54.9643 24.5735C55.162 24.774 55.4146 24.9116 55.6903 24.9688C55.966 25.026 56.2524 25.0004 56.5136 24.8952C56.7747 24.79 56.9989 24.6098 57.1581 24.3774C57.3172 24.1449 57.404 23.8706 57.4078 23.5889C57.4103 23.3997 57.3752 23.2119 57.3046 23.0364C57.2339 22.8609 57.1292 22.7012 56.9964 22.5665C56.8636 22.4318 56.7053 22.3249 56.5309 22.2519C56.3564 22.179 56.1693 22.1414 55.9802 22.1414Z" fill="#F9AB3E"/>
</g>
<g id="Group 1000001862">
<path id="Vector_13" d="M34.6269 53.8617C34.4601 53.8617 34.3002 53.7954 34.1822 53.6774C34.0643 53.5594 33.998 53.3993 33.998 53.2324V42.4204C33.998 42.2534 34.0643 42.0934 34.1822 41.9753C34.3002 41.8573 34.4601 41.791 34.6269 41.791C34.7937 41.791 34.9537 41.8573 35.0716 41.9753C35.1896 42.0934 35.2558 42.2534 35.2558 42.4204V53.2324C35.2558 53.3993 35.1896 53.5594 35.0716 53.6774C34.9537 53.7954 34.7937 53.8617 34.6269 53.8617Z" fill="#F9AB3E"/>
<path id="Vector_14" fill-rule="evenodd" clip-rule="evenodd" d="M34.6384 58.0015C34.1065 58.0015 33.5866 57.8434 33.1446 57.5473C32.7026 57.2511 32.3584 56.8303 32.1557 56.3382C31.953 55.8461 31.901 55.3048 32.0061 54.783C32.1113 54.2612 32.3689 53.7824 32.7464 53.4073C33.1238 53.0323 33.604 52.7779 34.1262 52.6763C34.6483 52.5748 35.1888 52.6307 35.6792 52.837C36.1695 53.0433 36.5876 53.3906 36.8804 53.835C37.1732 54.2794 37.3275 54.8008 37.3238 55.3331C37.3171 56.042 37.0315 56.7197 36.5288 57.2193C36.0261 57.7188 35.3469 57.9999 34.6384 58.0015ZM34.6384 53.8856C34.3569 53.8856 34.0816 53.9689 33.8473 54.1251C33.6129 54.2812 33.43 54.5032 33.3214 54.7632C33.2128 55.0231 33.1835 55.3094 33.237 55.586C33.2906 55.8626 33.4247 56.1171 33.6225 56.3177C33.8202 56.5182 34.0728 56.6557 34.3485 56.713C34.6242 56.7702 34.9106 56.7446 35.1718 56.6393C35.4329 56.5341 35.6572 56.3539 35.8163 56.1215C35.9754 55.8891 36.0622 55.6147 36.066 55.333C36.0685 55.1438 36.0334 54.956 35.9628 54.7805C35.8921 54.605 35.7874 54.4453 35.6546 54.3106C35.5218 54.176 35.3635 54.069 35.1891 53.9961C35.0147 53.9231 34.8275 53.8855 34.6384 53.8856Z" fill="#F9AB3E"/>
</g>
<path id="Vector_15" d="M41.2866 43.053H17.9046C17.2896 43.0514 16.7003 42.8062 16.2655 42.371C15.8307 41.9359 15.5856 41.3462 15.584 40.7308V17.332C15.5856 16.7166 15.8307 16.1269 16.2655 15.6918C16.7003 15.2566 17.2896 15.0114 17.9046 15.0098H41.2866C41.9016 15.0114 42.4909 15.2566 42.9257 15.6918C43.3606 16.1269 43.6056 16.7166 43.6072 17.332V40.7308C43.6056 41.3462 43.3606 41.9359 42.9257 42.371C42.4909 42.8062 41.9016 43.0514 41.2866 43.053ZM17.9046 16.2684C17.6227 16.2684 17.3524 16.3805 17.1531 16.58C16.9537 16.7794 16.8418 17.0499 16.8418 17.332V40.7308C16.8418 41.0129 16.9537 41.2834 17.1531 41.4828C17.3524 41.6823 17.6227 41.7944 17.9046 41.7944H41.2866C41.5685 41.7944 41.8389 41.6823 42.0382 41.4828C42.2375 41.2834 42.3495 41.0129 42.3495 40.7308V17.332C42.3495 17.0499 42.2375 16.7794 42.0382 16.58C41.8389 16.3805 41.5685 16.2684 41.2866 16.2684H17.9046Z" fill="#143A53"/>
<path id="Vector_16" d="M36.7697 37.8766H22.4185C21.9765 37.8766 21.5526 37.7009 21.2401 37.3882C20.9275 37.0754 20.752 36.6512 20.752 36.2089V21.8474C20.752 21.4051 20.9275 20.9809 21.2401 20.6682C21.5526 20.3554 21.9765 20.1797 22.4185 20.1797H36.7697C37.2117 20.1797 37.6356 20.3554 37.9482 20.6682C38.2607 20.9809 38.4363 21.4051 38.4363 21.8474V36.2089C38.4363 36.6512 38.2607 37.0754 37.9482 37.3882C37.6356 37.7009 37.2117 37.8766 36.7697 37.8766ZM22.4185 21.4384C22.3101 21.4384 22.2061 21.4815 22.1295 21.5582C22.0528 21.6349 22.0097 21.7389 22.0097 21.8474V36.2089C22.0097 36.3174 22.0528 36.4214 22.1295 36.4982C22.2061 36.5749 22.3101 36.618 22.4185 36.618H36.7697C36.8782 36.618 36.9821 36.5749 37.0588 36.4982C37.1355 36.4214 37.1785 36.3174 37.1785 36.2089V21.8474C37.1785 21.7389 37.1355 21.6349 37.0588 21.5582C36.9821 21.4815 36.8782 21.4384 36.7697 21.4384H22.4185Z" fill="#143A53"/>
</g>
</svg>
